<svg xmlns="http://www.w3.org/2000/svg" width="512" height="512" fill="none" viewBox="0 0 65 65">
  <style>
    path {
      fill: black;
    }
    @media (prefers-color-scheme: dark) {
      path {
        fill: white;
      }
    }
  </style>
  <path d="M29.302 61.15c-6.166-10.642-4.592-17.3 4.09-17.3 4.049 0 7.261 4.104 6.414 8.195-.747 3.6-5.55 12.45-7.022 12.94-.582.193-2.148-1.532-3.482-3.834zM19.53 43.89c1.595-2.692 6.886-6.483 7.79-5.58.801.797-5.35 7.221-7.436 7.765-1.875.489-1.888.405-.354-2.184zm22.18-.429c-3.236-3.227-4.218-5.44-2.414-5.44 1.43 0 6.896 5.836 6.896 7.36 0 2.073-.839 1.714-4.482-1.92zM6.155 36.806C2.722 35.07-.047 33.21 0 32.677c.161-1.828 9.083-6.544 13.271-7.015 3.355-.377 4.541-.078 5.982 1.51 2.673 2.946 2.54 8.717-.252 10.972-3.159 2.55-5.682 2.287-12.847-1.338zm40.048 1.418c-2.752-2.222-2.944-8.195-.354-11.049 1.444-1.59 2.628-1.89 5.984-1.513 4.254.478 13.202 5.245 13.167 7.015-.026 1.377-11.705 7.286-14.4 7.286-1.234 0-3.212-.783-4.397-1.74zM29.732 33.77c-1.3-1.561-.548-4.116 1.435-4.875 3.018-1.154 5.83 1.713 4.66 4.753-.701 1.825-4.612 1.903-6.095.123zm-7.506-9.741c-3.236-3.226-4.219-5.44-2.414-5.44 1.43 0 6.895 5.835 6.895 7.36 0 2.073-.838 1.714-4.482-1.92zm16.79.43c1.595-2.693 6.886-6.483 7.791-5.581.8.798-5.351 7.222-7.437 7.765-1.875.49-1.887.405-.354-2.184zM28.999 20.54c-2.763-1.112-3.46-2.387-3.46-6.319 0-3.154 4.173-12.142 6.552-14.11 1.597-1.323 7.447 9.725 7.577 14.309.159 5.59-4.848 8.462-10.669 6.12z"/>
</svg>